# xmcd
#
# Track frame offsets:
#	150
#	10774
#	28187
#	40765
#	62287
#	73963
#	90335
#	104696
#	117535
#	127612
#	138326
#	149026
#	160204
#	172510
#	183040
#	199296
#	209749
#	224192
#	240953
#	257132
#
# Disc length: 3596 seconds
#
# Revision: 1
# Processed by: cddbd v1.5.1PL2 Copyright (c) Steve Scherf et al.
# Submitted via: EasyCDDAExtractor 5.0.6
#
DISCID=230e0a14
DTITLE=Giannhs Logothetis - Re gyalakia ponhre
DYEAR=2005
DGENRE=Other
TTITLE0=Giannhs Logotheths - Ayta ta tragoudakia mou
TTITLE1=Dhmhtrhs Poulikakos_ Zwrz Pilali - Re gyalakia ponhre
TTITLE2=Foibos Delhvorias - Mia tyxaia istoria
TTITLE3=Layrentis Maxairitsas - To mpiskotaki
TTITLE4=Giannhs Giokarinhs - Eimai kai poly kamaki
TTITLE5=Afoi Katsampa - To kokoraki
TTITLE6=Pantelhs Ampazhs - De doulevw
TTITLE7=Pantelhs Thalassinos - Otan tyxei
TTITLE8=Sakhs Mpoulas_Agnh - Brikame th loula stop
TTITLE9=Lakhs Papadopoulos - Poios Thanashs?
TTITLE10=Tzimhs Panoushs - Hrthan kati americanoi
TTITLE11=Etsi de - Giannhs Logotheths - O gios tou parta ola
TTITLE12=Mwyshs Aser - Sto taka taka
TTITLE13=Baggelhs Germanos - Mpempa
TTITLE14=Hmiskoumpria - O sofos
TTITLE15=Dhmhtrhs Poulikakos - Htane kai karaflos
TTITLE16=Giannhs Logotheths - Ta kommatia
TTITLE17=Endelexeia - Mia kalhnyxta dixws xrwma
TTITLE18=Giannhs Logotheths - Erwtiko
TTITLE19=Giannhs Logotheths - To skylaki to kanis (authentikh hxografhsh tou 1
TTITLE19=977)
EXTD=
EXTT0=
EXTT1=
EXTT2=
EXTT3=
EXTT4=
EXTT5=
EXTT6=
EXTT7=
EXTT8=
EXTT9=
EXTT10=
EXTT11=
EXTT12=
EXTT13=
EXTT14=
EXTT15=
EXTT16=
EXTT17=
EXTT18=
EXTT19=
PLAYORDER=
